STARTFONT 2.1
COMMENT METAFONT output 1995.04.12:1802
COMMENT fontid=MSAM V2.2
COMMENT codingscheme=TeX math symbols
COMMENT fontfacebyte
COMMENT jobname=msam10
COMMENT mag=0.5
COMMENT mode=cx
COMMENT pixels_per_inch=300
COMMENT blacker=0
COMMENT fillin=0.2
COMMENT o_correction=0.6
COMMENT Checksum 97b3eecd
COMMENT 
COMMENT This file is made by pktobdf using the above specified pk file.
COMMENT 
FONT -metafont-msam10-medium-r-normal--21-200-75-75-P-122-MetaFont-FONTSPECIFIC
SIZE 21 75 75
FONTBOUNDINGBOX 26 34 0 -11
STARTPROPERTIES 21
FONT_ASCENT 17
FONT_DESCENT 7
FOUNDRY "metafont"
FAMILY_NAME "msam10"
WEIGHT_NAME "medium"
SLANT "r"
SETWIDTH_NAME "normal"
ADD_STYLE_NAME ""
PIXEL_SIZE 21
POINT_SIZE 200
RESOLUTOIN_X 75
RESOLUTOIN_Y 75
SPACING "P"
AVERAGE_WIDTH 122
CHARSET_REGISTRY "MetaFont"
CHARSET_ENCODING "FONTSPECIFIC"
AVG_CAPITAL_WIDTH 22
AVG_LOWERCASE_WIDTH 25
COPYRIGHT "MetaFont (public domain)"
DEVICE_FONT_NAME "msam10"
FULLNAME "msam10"
ENDPROPERTIES
CHARS 128
STARTCHAR Gamma
ENCODING 0
SWIDTH 765 0
DWIDTH 16 0
BBX 13 13 1 0
BITMAP
fff8
8008
8008
8008
8008
8008
8308
8008
8008
8008
8008
8008
fff8
ENDCHAR
STARTCHAR Delta
ENCODING 1
SWIDTH 765 0
DWIDTH 16 0
BBX 13 13 1 0
BITMAP
fff8
8208
8208
8208
8208
8208
fff8
8208
8208
8208
8208
8208
fff8
ENDCHAR
STARTCHAR Theta
ENCODING 2
SWIDTH 765 0
DWIDTH 16 0
BBX 13 13 1 0
BITMAP
fff8
c018
a028
9048
8888
8508
8208
8508
8888
9048
a028
c018
fff8
ENDCHAR
STARTCHAR Lamdba
ENCODING 3
SWIDTH 765 0
DWIDTH 16 0
BBX 13 13 1 0
BITMAP
fff8
8008
8008
8008
8008
8008
8008
8008
8008
8008
8008
8008
fff8
ENDCHAR
STARTCHAR Xi
ENCODING 4
SWIDTH 765 0
DWIDTH 16 0
BBX 13 13 1 0
BITMAP
fff8
fff8
fff8
fff8
fff8
fff8
fff8
fff8
fff8
fff8
fff8
fff8
fff8
ENDCHAR
STARTCHAR Pi
ENCODING 5
SWIDTH 287 0
DWIDTH 6 0
BBX 3 3 1 0
BITMAP
e0
e0
e0
ENDCHAR
STARTCHAR Sigma
ENCODING 6
SWIDTH 669 0
DWIDTH 14 0
BBX 11 17 1 -2
BITMAP
0400
0400
0a00
1100
1100
2080
4040
4040
8020
8020
4040
2080
2080
1100
0a00
0a00
0400
ENDCHAR
STARTCHAR Upsilon
ENCODING 7
SWIDTH 669 0
DWIDTH 14 0
BBX 11 17 1 -2
BITMAP
0400
0400
0e00
1f00
1f00
3f80
7fc0
7fc0
ffe0
ffe0
7fc0
3f80
3f80
1f00
0e00
0e00
0400
ENDCHAR
STARTCHAR Phi
ENCODING 8
SWIDTH 765 0
DWIDTH 16 0
BBX 13 14 1 -1
BITMAP
2000
1e00
1840
2020
5010
4010
8008
8008
8008
4010
4010
2020
18c0
0700
ENDCHAR
STARTCHAR Psi
ENCODING 9
SWIDTH 765 0
DWIDTH 16 0
BBX 13 14 1 -1
BITMAP
0020
03c0
10c0
2020
4050
4010
8008
8008
8008
4010
4010
2020
18c0
0700
ENDCHAR
STARTCHAR Omega
ENCODING 10
SWIDTH 1004 0
DWIDTH 21 0
BBX 18 11 1 0
BITMAP
000200
000100
ffff80
000000
000000
000000
000000
ffffc0
400000
200000
100000
ENDCHAR
STARTCHAR arrowup
ENCODING 11
SWIDTH 1004 0
DWIDTH 21 0
BBX 18 11 1 0
BITMAP
100000
200000
7fffc0
000000
000000
000000
000000
ffffc0
000080
000100
000200
ENDCHAR
STARTCHAR arrowdown
ENCODING 12
SWIDTH 765 0
DWIDTH 16 0
BBX 13 13 1 0
BITMAP
fff8
8008
8008
8008
8008
8008
fff8
8008
8008
8008
8008
8008
fff8
ENDCHAR
STARTCHAR quotesingle
ENCODING 13
SWIDTH 717 0
DWIDTH 15 0
BBX 12 14 1 0
BITMAP
8400
8400
8400
8400
8400
8400
87f0
8400
8400
8400
8400
8400
8400
8400
ENDCHAR
STARTCHAR exclamdown
ENCODING 14
SWIDTH 861 0
DWIDTH 18 0
BBX 15 14 1 0
BITMAP
8880
8880
8880
8880
8880
8880
88fe
8880
8880
8880
8880
8880
8880
8880
ENDCHAR
STARTCHAR questiondown
ENCODING 15
SWIDTH 621 0
DWIDTH 13 0
BBX 10 14 1 0
BITMAP
8000
8000
8000
ffc0
8000
8000
8000
8000
ffc0
8000
8000
8000
8000
8000
ENDCHAR
STARTCHAR dotlessi
ENCODING 16
SWIDTH 1004 0
DWIDTH 21 0
BBX 18 7 1 2
BITMAP
002200
001100
001980
ffffc0
001980
001100
002200
ENDCHAR
STARTCHAR dotlessj
ENCODING 17
SWIDTH 1004 0
DWIDTH 21 0
BBX 18 7 1 2
BITMAP
110000
220000
660000
ffffc0
660000
220000
110000
ENDCHAR
STARTCHAR grave
ENCODING 18
SWIDTH 1004 0
DWIDTH 21 0
BBX 17 13 2 -1
BITMAP
200000
400000
800000
ffff80
400000
400000
200000
400000
400000
ffff80
800000
400000
200000
ENDCHAR
STARTCHAR acute
ENCODING 19
SWIDTH 1004 0
DWIDTH 21 0
BBX 17 13 1 -1
BITMAP
000200
000100
000080
ffff80
000100
000100
000200
000100
000100
ffff80
000080
000100
000200
ENDCHAR
STARTCHAR caron
ENCODING 20
SWIDTH 813 0
DWIDTH 17 0
BBX 13 17 2 -4
BITMAP
3060
ddd8
1040
1040
1040
1040
1040
1040
1040
1040
1040
1040
1040
1040
1040
1040
1040
ENDCHAR
STARTCHAR breve
ENCODING 21
SWIDTH 813 0
DWIDTH 17 0
BBX 13 17 2 -3
BITMAP
1040
1040
1040
1040
1040
1040
1040
1040
1040
1040
1040
1040
1040
1040
1040
ddd8
3060
ENDCHAR
STARTCHAR macron
ENCODING 22
SWIDTH 430 0
DWIDTH 9 0
BBX 4 18 4 -4
BITMAP
80
c0
e0
90
80
80
80
80
80
80
80
80
80
80
80
80
80
80
ENDCHAR
STARTCHAR ring
ENCODING 23
SWIDTH 430 0
DWIDTH 9 0
BBX 4 18 4 -4
BITMAP
80
80
80
80
80
80
80
80
80
80
80
80
80
80
90
e0
c0
80
ENDCHAR
STARTCHAR cedilla
ENCODING 24
SWIDTH 430 0
DWIDTH 9 0
BBX 4 18 0 -4
BITMAP
10
30
70
90
10
10
10
10
10
10
10
10
10
10
10
10
10
10
ENDCHAR
STARTCHAR germandbls
ENCODING 25
SWIDTH 430 0
DWIDTH 9 0
BBX 4 18 0 -4
BITMAP
10
10
10
10
10
10
10
10
10
10
10
10
10
10
90
70
30
10
ENDCHAR
STARTCHAR ae
ENCODING 26
SWIDTH 1100 0
DWIDTH 23 0
BBX 20 7 1 2
BITMAP
8000c0
400040
600020
3ffff0
600020
400040
8000c0
ENDCHAR
STARTCHAR oe
ENCODING 27
SWIDTH 1100 0
DWIDTH 23 0
BBX 20 7 1 2
BITMAP
100010
200020
400060
ffffc0
400060
200020
100010
ENDCHAR
STARTCHAR oslash
ENCODING 28
SWIDTH 1004 0
DWIDTH 21 0
BBX 18 13 1 1
BITMAP
100000
200000
7fffc0
400000
200000
100000
000200
000100
000100
ffffc0
000080
000100
000200
ENDCHAR
STARTCHAR AE
ENCODING 29
SWIDTH 1004 0
DWIDTH 21 0
BBX 18 13 1 1
BITMAP
000200
000100
ffff80
000080
000100
000200
100000
200000
200000
ffffc0
400000
200000
100000
ENDCHAR
STARTCHAR OE
ENCODING 30
SWIDTH 478 0
DWIDTH 10 0
BBX 7 15 1 0
BITMAP
10
20
20
fe
42
22
12
02
02
02
02
02
02
02
02
ENDCHAR
STARTCHAR Oslash
ENCODING 31
SWIDTH 478 0
DWIDTH 10 0
BBX 7 15 1 0
BITMAP
10
08
08
fe
84
88
90
80
80
80
80
80
80
80
80
ENDCHAR
STARTCHAR tilde
ENCODING 32
SWIDTH 1004 0
DWIDTH 21 0
BBX 18 7 1 2
BITMAP
000200
202100
505180
888fc0
050180
020100
000200
ENDCHAR
STARTCHAR exclam
ENCODING 33
SWIDTH 1387 0
DWIDTH 29 0
BBX 26 7 1 2
BITMAP
10000200
20000100
660c1980
f91227c0
60a14180
20408100
10000200
ENDCHAR
STARTCHAR quotedblright
ENCODING 34
SWIDTH 1004 0
DWIDTH 21 0
BBX 18 12 1 0
BITMAP
000780
000840
000840
100840
201040
601040
ffff80
600800
200800
100800
000800
000800
ENDCHAR
STARTCHAR numbersign
ENCODING 35
SWIDTH 1004 0
DWIDTH 21 0
BBX 18 12 1 0
BITMAP
780000
840000
840000
840200
820100
820180
7fffc0
020180
020100
020200
020000
020000
ENDCHAR
STARTCHAR dollar
ENCODING 36
SWIDTH 765 0
DWIDTH 16 0
BBX 13 15 1 2
BITMAP
0700
0880
0880
0880
0700
0000
0000
0000
fff8
0000
0000
0000
0000
0000
fff8
ENDCHAR
STARTCHAR percent
ENCODING 37
SWIDTH 765 0
DWIDTH 16 0
BBX 13 22 1 -7
BITMAP
4000
4000
4000
2000
1000
0e00
01f0
0e00
1000
2000
4000
4000
4000
0000
0000
0000
0000
3808
4408
8208
8110
80e0
ENDCHAR
STARTCHAR ampersand
ENCODING 38
SWIDTH 765 0
DWIDTH 16 0
BBX 13 22 1 -7
BITMAP
4000
3000
0c00
0200
0180
0060
0010
0060
0180
0200
0c00
3000
4000
0000
0000
0000
0000
3808
4408
8208
8110
80e0
ENDCHAR
STARTCHAR quoteright
ENCODING 39
SWIDTH 765 0
DWIDTH 16 0
BBX 13 22 1 -6
BITMAP
4000
3000
0c00
0300
00c0
0030
0060
0180
0600
1800
6000
0000
3808
4408
8208
8110
80e0
3808
4408
8208
8110
80e0
ENDCHAR
STARTCHAR parenleft
ENCODING 40
SWIDTH 1100 0
DWIDTH 23 0
BBX 20 7 1 2
BITMAP
0001c0
000220
000410
fffc10
000410
000220
0001c0
ENDCHAR
STARTCHAR parenright
ENCODING 41
SWIDTH 669 0
DWIDTH 14 0
BBX 11 10 1 -1
BITMAP
0400
0400
0000
0000
0000
0000
0000
0000
c060
c060
ENDCHAR
STARTCHAR asterisk
ENCODING 42
SWIDTH 669 0
DWIDTH 14 0
BBX 11 10 1 -1
BITMAP
c060
c060
0000
0000
0000
0000
0000
0000
0400
0400
ENDCHAR
STARTCHAR plus
ENCODING 43
SWIDTH 765 0
DWIDTH 16 0
BBX 13 17 1 -3
BITMAP
0700
0700
0000
0000
0000
fff8
0000
0000
0000
0000
0000
fff8
0000
0000
0000
0700
0700
ENDCHAR
STARTCHAR comma
ENCODING 44
SWIDTH 813 0
DWIDTH 17 0
BBX 14 17 1 2
BITMAP
0300
0300
0480
0840
0840
1020
1fe0
0000
0000
0000
fffc
0000
0000
0000
0000
0000
fffc
ENDCHAR
STARTCHAR hyphen
ENCODING 45
SWIDTH 765 0
DWIDTH 16 0
BBX 13 22 1 -7
BITMAP
0010
0010
0010
0020
0040
0380
7c00
0380
0040
0020
0010
0010
0010
0000
0000
0000
0000
3808
4408
8208
8110
80e0
ENDCHAR
STARTCHAR period
ENCODING 46
SWIDTH 765 0
DWIDTH 16 0
BBX 13 22 1 -7
BITMAP
0010
0060
0180
0200
0c00
3000
4000
3000
0c00
0200
0180
0060
0010
0000
0000
0000
0000
3808
4408
8208
8110
80e0
ENDCHAR
STARTCHAR slash
ENCODING 47
SWIDTH 765 0
DWIDTH 16 0
BBX 13 22 1 -6
BITMAP
0010
0060
0180
0600
1800
6000
3000
0c00
0300
00c0
0030
0000
3808
4408
8208
8110
80e0
3808
4408
8208
8110
80e0
ENDCHAR
STARTCHAR 0
ENCODING 48
SWIDTH 765 0
DWIDTH 16 0
BBX 11 18 2 -5
BITMAP
0020
00c0
0300
0400
1800
6020
80c0
0300
0400
1800
6000
8000
6000
1800
0400
0300
00c0
0020
ENDCHAR
STARTCHAR 1
ENCODING 49
SWIDTH 765 0
DWIDTH 16 0
BBX 11 18 2 -5
BITMAP
8000
6000
1800
0400
0300
80c0
6020
1800
0400
0300
00c0
0020
00c0
0300
0400
1800
6000
8000
ENDCHAR
STARTCHAR 2
ENCODING 50
SWIDTH 765 0
DWIDTH 16 0
BBX 11 17 2 0
BITMAP
0080
0080
0100
0100
0620
1820
e040
0040
0180
0600
f800
0600
0180
0040
0040
0020
0020
ENDCHAR
STARTCHAR 3
ENCODING 51
SWIDTH 765 0
DWIDTH 16 0
BBX 11 17 2 0
BITMAP
2000
2000
1000
1000
8c00
8300
40e0
4000
3000
0c00
03e0
0c00
3000
4000
4000
8000
8000
ENDCHAR
STARTCHAR 4
ENCODING 52
SWIDTH 765 0
DWIDTH 16 0
BBX 11 17 2 -4
BITMAP
0020
0020
0040
0040
0180
0600
f800
0600
0180
0040
e040
1820
0620
0100
0100
0080
0080
ENDCHAR
STARTCHAR 5
ENCODING 53
SWIDTH 765 0
DWIDTH 16 0
BBX 11 22 2 -6
BITMAP
0020
00c0
0300
0400
1800
6000
8000
6000
1800
0400
0300
00c0
0020
0000
0000
0000
ffe0
0000
0000
0000
0000
ffe0
ENDCHAR
STARTCHAR 6
ENCODING 54
SWIDTH 765 0
DWIDTH 16 0
BBX 11 18 2 -5
BITMAP
0020
00c0
0300
0400
1800
6000
8000
6000
1800
0400
0300
80c0
6020
1800
0400
0300
00c0
0020
ENDCHAR
STARTCHAR 7
ENCODING 55
SWIDTH 765 0
DWIDTH 16 0
BBX 13 20 1 -6
BITMAP
0008
0070
0180
0e00
7000
8000
7000
0c00
0380
8070
7008
0c00
0380
0070
0008
0070
0180
0e00
7000
8000
ENDCHAR
STARTCHAR 8
ENCODING 56
SWIDTH 287 0
DWIDTH 6 0
BBX 4 11 0 1
BITMAP
c0
c0
c0
60
60
60
20
20
30
10
10
ENDCHAR
STARTCHAR 9
ENCODING 57
SWIDTH 334 0
DWIDTH 7 0
BBX 6 1 2 5
BITMAP
fc
ENDCHAR
STARTCHAR colon
ENCODING 58
SWIDTH 765 0
DWIDTH 16 0
BBX 13 17 1 -3
BITMAP
0008
0008
0000
0000
0000
fff8
0000
0000
0000
0000
0000
fff8
0000
0000
0000
8000
8000
ENDCHAR
STARTCHAR semicolon
ENCODING 59
SWIDTH 765 0
DWIDTH 16 0
BBX 13 17 1 -3
BITMAP
8000
8000
0000
0000
0000
fff8
0000
0000
0000
0000
0000
fff8
0000
0000
0000
0008
0008
ENDCHAR
STARTCHAR less
ENCODING 60
SWIDTH 765 0
DWIDTH 16 0
BBX 11 17 2 -4
BITMAP
8000
8000
4000
4000
3000
0c00
03e0
0c00
3000
4000
40e0
8300
8c00
1000
1000
2000
2000
ENDCHAR
STARTCHAR equal
ENCODING 61
SWIDTH 765 0
DWIDTH 16 0
BBX 11 22 2 -6
BITMAP
8000
6000
1800
0400
0300
00c0
0020
00c0
0300
0400
1800
6000
8000
0000
0000
0000
ffe0
0000
0000
0000
0000
ffe0
ENDCHAR
STARTCHAR greater
ENCODING 62
SWIDTH 765 0
DWIDTH 16 0
BBX 11 18 2 -5
BITMAP
8000
6000
1800
0400
0300
00c0
0020
00c0
0300
0400
1800
6020
80c0
0300
0400
1800
6000
8000
ENDCHAR
STARTCHAR question
ENCODING 63
SWIDTH 765 0
DWIDTH 16 0
BBX 11 20 2 -6
BITMAP
8000
6000
1800
0600
0180
0060
00c0
0300
0c00
3020
c0c0
0300
0c00
3000
c000
6000
1800
0600
0180
0060
ENDCHAR
STARTCHAR at
ENCODING 64
SWIDTH 765 0
DWIDTH 16 0
BBX 12 13 2 -2
BITMAP
fff0
8000
8000
8000
8000
8000
8000
8000
8000
8000
8000
8000
fff0
ENDCHAR
STARTCHAR A
ENCODING 65
SWIDTH 765 0
DWIDTH 16 0
BBX 13 13 1 -2
BITMAP
fff8
0008
0008
0008
0008
0008
0008
0008
0008
0008
0008
0008
7ff8
ENDCHAR
STARTCHAR B
ENCODING 66
SWIDTH 765 0
DWIDTH 16 0
BBX 11 13 2 -2
BITMAP
8000
e000
9800
8600
8100
80c0
8020
80c0
8100
8600
9800
e000
8000
ENDCHAR
STARTCHAR C
ENCODING 67
SWIDTH 765 0
DWIDTH 16 0
BBX 10 13 3 -2
BITMAP
0040
01c0
0240
0c40
3040
4040
8040
4040
3040
0c40
0240
01c0
0040
ENDCHAR
STARTCHAR D
ENCODING 68
SWIDTH 765 0
DWIDTH 16 0
BBX 11 18 2 -5
BITMAP
8000
e000
9800
8600
8100
80c0
8020
80c0
8100
8600
9800
e000
8000
0000
0000
0000
0000
ffe0
ENDCHAR
STARTCHAR E
ENCODING 69
SWIDTH 765 0
DWIDTH 16 0
BBX 10 18 3 -5
BITMAP
0040
01c0
0240
0c40
3040
4040
8040
4040
3040
0c40
0240
01c0
0040
0000
0000
0000
0000
ffc0
ENDCHAR
STARTCHAR F
ENCODING 70
SWIDTH 956 0
DWIDTH 20 0
BBX 16 14 2 -2
BITMAP
0180
0180
0180
03c0
ffff
7ffe
1ff8
0ff0
07e0
0ff0
0ff0
0e70
1818
1008
ENDCHAR
STARTCHAR G
ENCODING 71
SWIDTH 478 0
DWIDTH 10 0
BBX 7 21 1 -5
BITMAP
44
28
10
28
28
44
44
44
82
82
82
82
82
44
44
44
28
28
10
28
44
ENDCHAR
STARTCHAR H
ENCODING 72
SWIDTH 717 0
DWIDTH 15 0
BBX 10 13 2 0
BITMAP
ffc0
ffc0
ffc0
7f80
7f80
3f00
3f00
3f00
1e00
1e00
0c00
0c00
0c00
ENDCHAR
STARTCHAR I
ENCODING 73
SWIDTH 765 0
DWIDTH 16 0
BBX 11 13 2 -2
BITMAP
8000
e000
f800
fe00
ff00
ffc0
ffe0
ffc0
ff00
fe00
f800
e000
8000
ENDCHAR
STARTCHAR J
ENCODING 74
SWIDTH 765 0
DWIDTH 16 0
BBX 10 13 3 -2
BITMAP
0040
01c0
03c0
0fc0
3fc0
7fc0
ffc0
7fc0
3fc0
0fc0
03c0
01c0
0040
ENDCHAR
STARTCHAR K
ENCODING 75
SWIDTH 813 0
DWIDTH 17 0
BBX 7 7 1 2
BITMAP
30
18
1c
fe
1c
18
30
ENDCHAR
STARTCHAR L
ENCODING 76
SWIDTH 861 0
DWIDTH 18 0
BBX 7 7 1 2
BITMAP
18
18
30
fe
30
18
18
ENDCHAR
STARTCHAR M
ENCODING 77
SWIDTH 717 0
DWIDTH 15 0
BBX 10 12 2 0
BITMAP
0c00
0c00
0c00
1200
1200
2100
2100
2100
4080
4080
8040
ffc0
ENDCHAR
STARTCHAR N
ENCODING 78
SWIDTH 717 0
DWIDTH 15 0
BBX 10 12 2 0
BITMAP
0c00
0c00
0c00
1e00
1e00
3f00
3f00
3f00
7f80
7f80
ffc0
ffc0
ENDCHAR
STARTCHAR O
ENCODING 79
SWIDTH 717 0
DWIDTH 15 0
BBX 10 13 2 0
BITMAP
ffc0
8040
8040
4080
4080
2100
2100
2100
1200
1200
0c00
0c00
0c00
ENDCHAR
STARTCHAR P
ENCODING 80
SWIDTH 765 0
DWIDTH 16 0
BBX 13 7 1 2
BITMAP
fff8
0000
0000
0000
0000
0000
fff8
ENDCHAR
STARTCHAR Q
ENCODING 81
SWIDTH 765 0
DWIDTH 16 0
BBX 11 29 2 -11
BITMAP
0060
0180
0600
1800
6000
e000
1800
0600
0180
0060
0000
0000
0000
0000
ffc0
0000
0000
0000
0000
c000
3000
0c00
0300
00c0
00c0
0300
0c00
3000
c000
ENDCHAR
STARTCHAR R
ENCODING 82
SWIDTH 765 0
DWIDTH 16 0
BBX 10 29 2 -11
BITMAP
c000
3000
0c00
0300
00c0
00c0
0300
0c00
3000
c000
0000
0000
0000
0000
ffc0
0000
0000
0000
0000
0040
0180
0600
1800
6000
e000
1800
0600
0180
0040
ENDCHAR
STARTCHAR S
ENCODING 83
SWIDTH 765 0
DWIDTH 16 0
BBX 11 34 2 -11
BITMAP
0060
0180
0600
1800
e000
6000
1800
0600
0180
0060
0000
0000
0000
0000
ffe0
0000
0000
0000
0000
ffe0
0000
0000
0000
0000
c000
3000
0c00
0300
00c0
00e0
0300
0c00
3000
c000
ENDCHAR
STARTCHAR T
ENCODING 84
SWIDTH 765 0
DWIDTH 16 0
BBX 11 34 2 -11
BITMAP
c000
3000
0c00
0300
00e0
00c0
0300
0c00
3000
c000
0000
0000
0000
0000
ffe0
0000
0000
0000
0000
ffe0
0000
0000
0000
0000
0060
0180
0600
1800
6000
e000
1800
0600
0180
0060
ENDCHAR
STARTCHAR U
ENCODING 85
SWIDTH 765 0
DWIDTH 16 0
BBX 15 14 0 0
BITMAP
fc3e
1818
1c10
0c30
7ffc
0640
0340
0380
0180
7ffc
0180
0180
0180
07e0
ENDCHAR
STARTCHAR V
ENCODING 86
SWIDTH 1004 0
DWIDTH 21 0
BBX 17 17 1 -3
BITMAP
002000
003000
001000
fff800
000800
000400
000200
000100
ffff80
000100
000200
000400
000800
fff800
001000
003000
002000
ENDCHAR
STARTCHAR W
ENCODING 87
SWIDTH 1004 0
DWIDTH 21 0
BBX 17 17 2 -3
BITMAP
020000
060000
040000
0fff80
080000
100000
200000
400000
ffff80
400000
200000
100000
080000
0fff80
040000
060000
020000
ENDCHAR
STARTCHAR X
ENCODING 88
SWIDTH 813 0
DWIDTH 17 0
BBX 11 14 2 0
BITMAP
0020
0040
0080
0180
0100
0200
0600
0400
4c00
e800
7800
7800
7000
3000
ENDCHAR
STARTCHAR Y
ENCODING 89
SWIDTH 621 0
DWIDTH 13 0
BBX 10 14 1 0
BITMAP
8040
4080
4080
2100
2100
1200
1200
0c00
0000
0000
0000
0000
0000
ffc0
ENDCHAR
STARTCHAR Z
ENCODING 90
SWIDTH 621 0
DWIDTH 13 0
BBX 10 14 1 0
BITMAP
ffc0
0000
0000
0000
0000
0400
0c00
1200
1200
2100
2100
4080
4080
8040
ENDCHAR
STARTCHAR bracketleft
ENCODING 91
SWIDTH 621 0
DWIDTH 13 0
BBX 10 20 1 -3
BITMAP
ffc0
0000
0000
0000
0000
ffc0
0000
0000
0000
0000
0000
0c00
0c00
1200
1200
2100
4080
4080
8040
8040
ENDCHAR
STARTCHAR leftdblquote
ENCODING 92
SWIDTH 717 0
DWIDTH 15 0
BBX 12 14 1 0
BITMAP
0010
0020
0040
0080
0080
0100
0200
0400
0800
1000
1000
2000
4000
fff0
ENDCHAR
STARTCHAR bracketright
ENCODING 93
SWIDTH 717 0
DWIDTH 15 0
BBX 12 14 1 0
BITMAP
0010
0020
0040
0080
0100
0100
0200
0400
0c00
1200
2200
2100
4100
fff0
ENDCHAR
STARTCHAR circumflex
ENCODING 94
SWIDTH 717 0
DWIDTH 15 0
BBX 12 13 1 -1
BITMAP
0010
0060
01c0
0640
1820
6020
8020
6020
1820
0640
01c0
0060
0010
ENDCHAR
STARTCHAR dotaccent
ENCODING 95
SWIDTH 765 0
DWIDTH 16 0
BBX 13 9 1 1
BITMAP
1c18
2220
4140
8180
8080
8180
4140
2220
1c18
ENDCHAR
STARTCHAR leftquote
ENCODING 96
SWIDTH 765 0
DWIDTH 16 0
BBX 13 4 1 4
BITMAP
8008
4010
2020
1fc0
ENDCHAR
STARTCHAR a
ENCODING 97
SWIDTH 765 0
DWIDTH 16 0
BBX 13 5 1 3
BITMAP
0f80
1040
2020
4010
8008
ENDCHAR
STARTCHAR b
ENCODING 98
SWIDTH 765 0
DWIDTH 16 0
BBX 11 13 2 -1
BITMAP
1fe0
2000
4000
4000
87e0
8800
8800
8800
87e0
4000
4000
2000
1fe0
ENDCHAR
STARTCHAR c
ENCODING 99
SWIDTH 765 0
DWIDTH 16 0
BBX 11 13 2 -1
BITMAP
ff00
0080
0040
0040
fc20
0220
0220
0220
fc20
0040
0040
0080
ff00
ENDCHAR
STARTCHAR d
ENCODING 100
SWIDTH 669 0
DWIDTH 14 0
BBX 11 13 1 0
BITMAP
8a20
8a20
8a20
8a20
8a20
8a20
8a20
8a20
8420
8020
4040
2080
1f00
ENDCHAR
STARTCHAR e
ENCODING 101
SWIDTH 669 0
DWIDTH 14 0
BBX 11 13 1 0
BITMAP
1f00
2080
4040
8020
8420
8a20
8a20
8a20
8a20
8a20
8a20
8a20
8a20
ENDCHAR
STARTCHAR f
ENCODING 102
SWIDTH 765 0
DWIDTH 16 0
BBX 11 12 2 0
BITMAP
0400
0400
0400
0400
0400
0400
0a00
0a00
0a00
1100
2080
c060
ENDCHAR
STARTCHAR g
ENCODING 103
SWIDTH 765 0
DWIDTH 16 0
BBX 11 12 2 0
BITMAP
c060
2080
1100
0a00
0a00
0a00
0400
0400
0400
0400
0400
0400
ENDCHAR
STARTCHAR h
ENCODING 104
SWIDTH 765 0
DWIDTH 16 0
BBX 13 14 1 0
BITMAP
8000
4000
2000
1000
0800
0400
0200
0200
0500
0880
1040
2020
4010
8008
ENDCHAR
STARTCHAR i
ENCODING 105
SWIDTH 765 0
DWIDTH 16 0
BBX 13 14 1 0
BITMAP
0008
0010
0020
0040
0080
0100
0200
0200
0500
0880
1040
2020
4010
8008
ENDCHAR
STARTCHAR j
ENCODING 106
SWIDTH 765 0
DWIDTH 16 0
BBX 11 23 2 -7
BITMAP
1fe0
2000
4000
4000
8000
8000
8000
8000
8000
4000
4000
2000
1fe0
0000
0000
0000
0000
ffe0
0000
0000
0000
0000
ffe0
ENDCHAR
STARTCHAR k
ENCODING 107
SWIDTH 765 0
DWIDTH 16 0
BBX 11 23 2 -7
BITMAP
ff00
0080
0040
0040
0020
0020
0020
0020
0020
0040
0040
0080
ff00
0000
0000
0000
0000
ffe0
0000
0000
0000
0000
ffe0
ENDCHAR
STARTCHAR l
ENCODING 108
SWIDTH 765 0
DWIDTH 16 0
BBX 13 9 1 2
BITMAP
0700
0880
f8f8
0000
0000
0000
0000
0000
fff8
ENDCHAR
STARTCHAR m
ENCODING 109
SWIDTH 765 0
DWIDTH 16 0
BBX 13 11 1 0
BITMAP
0700
0880
f8f8
0000
0000
0000
0000
0000
f8f8
0880
0700
ENDCHAR
STARTCHAR n
ENCODING 110
SWIDTH 1339 0
DWIDTH 28 0
BBX 25 15 1 -2
BITMAP
00106080
00608300
00830400
03041800
0c186000
10608000
60830000
83040000
60830000
10608000
0c106000
030c1800
00830400
00608300
00106080
ENDCHAR
STARTCHAR o
ENCODING 111
SWIDTH 1339 0
DWIDTH 28 0
BBX 25 15 1 -2
BITMAP
83040000
60830000
18608000
04106000
030c1000
00830c00
00608300
00106080
00608300
00830c00
03041000
04186000
18608000
60830000
83040000
ENDCHAR
STARTCHAR p
ENCODING 112
SWIDTH 478 0
DWIDTH 10 0
BBX 7 7 1 7
BITMAP
fe
80
80
80
80
80
80
ENDCHAR
STARTCHAR q
ENCODING 113
SWIDTH 478 0
DWIDTH 10 0
BBX 7 7 1 7
BITMAP
fe
02
02
02
02
02
02
ENDCHAR
STARTCHAR r
ENCODING 114
SWIDTH 956 0
DWIDTH 20 0
BBX 19 19 0 -4
BITMAP
01f000
060c00
180300
200080
27e080
421040
420840
820820
821020
83e020
823020
421040
421040
421040
270e80
100100
080200
07bc00
004000
ENDCHAR
STARTCHAR s
ENCODING 115
SWIDTH 908 0
DWIDTH 19 0
BBX 18 19 0 -4
BITMAP
03f000
0c0c00
100200
200100
41f080
421080
821040
820040
810040
80e040
801040
801040
821040
421080
43e080
200100
180600
073800
00c000
ENDCHAR
STARTCHAR t
ENCODING 116
SWIDTH 669 0
DWIDTH 14 0
BBX 11 15 1 0
BITMAP
0400
0400
0400
0400
0400
3f80
4440
8420
8420
8420
8420
8420
8420
8420
8420
ENDCHAR
STARTCHAR u
ENCODING 117
SWIDTH 765 0
DWIDTH 16 0
BBX 13 17 1 -1
BITMAP
0200
0700
0700
0000
0200
0200
0200
0200
0200
0200
fff8
0200
0200
0200
0200
0200
0200
ENDCHAR
STARTCHAR v
ENCODING 118
SWIDTH 765 0
DWIDTH 16 0
BBX 13 5 1 3
BITMAP
80e0
8110
8208
4408
3808
ENDCHAR
STARTCHAR w
ENCODING 119
SWIDTH 765 0
DWIDTH 16 0
BBX 13 10 1 0
BITMAP
80e0
8110
8208
4408
3808
0000
0000
0000
0000
fff8
ENDCHAR
STARTCHAR x
ENCODING 120
SWIDTH 478 0
DWIDTH 10 0
BBX 7 7 1 0
BITMAP
80
80
80
80
80
80
fe
ENDCHAR
STARTCHAR y
ENCODING 121
SWIDTH 478 0
DWIDTH 10 0
BBX 7 7 1 0
BITMAP
02
02
02
02
02
02
fe
ENDCHAR
STARTCHAR z
ENCODING 122
SWIDTH 813 0
DWIDTH 17 0
BBX 14 14 1 0
BITMAP
1fe0
0fc0
0780
8304
c30c
e31c
fffc
fffc
e31c
c30c
8304
0780
0fc0
1fe0
ENDCHAR
STARTCHAR endash
ENCODING 123
SWIDTH 478 0
DWIDTH 10 0
BBX 7 17 1 0
BITMAP
38
7c
c6
c6
c6
c6
c0
c0
c0
c0
c0
c6
c6
c6
c6
7c
38
ENDCHAR
STARTCHAR emdash
ENCODING 124
SWIDTH 574 0
DWIDTH 12 0
BBX 7 13 2 -4
BITMAP
fe
fe
18
18
18
18
18
18
18
18
18
18
10
ENDCHAR
STARTCHAR quotedbl
ENCODING 125
SWIDTH 765 0
DWIDTH 16 0
BBX 13 13 1 -1
BITMAP
0700
18c0
2020
4010
4710
8888
8888
8888
4710
4010
2020
18c0
0700
ENDCHAR
STARTCHAR hungarumlaut
ENCODING 126
SWIDTH 765 0
DWIDTH 16 0
BBX 13 13 1 -1
BITMAP
0700
18c0
2220
4210
5250
8f88
8208
8f88
5250
4210
2220
18c0
0700
ENDCHAR
STARTCHAR dieresis
ENCODING 127
SWIDTH 765 0
DWIDTH 16 0
BBX 13 13 1 -1
BITMAP
0700
18c0
2020
4010
4010
8008
9fc8
8008
4010
4010
2020
18c0
0700
ENDCHAR
ENDFONT
